<?xml version="1.0" standalone="no"?>
<!DOCTYPE svg PUBLIC "-//W3C//DTD SVG 20010904//EN"
 "http://www.w3.org/TR/2001/REC-SVG-20010904/DTD/svg10.dtd">
<svg version="1.0" xmlns="http://www.w3.org/2000/svg"
 width="425.000000pt" height="425.000000pt" viewBox="0 0 425.000000 425.000000"
 preserveAspectRatio="xMidYMid meet">
<metadata>
Created by potrace 1.14, written by Peter Selinger 2001-2017
</metadata>
<g transform="translate(0.000000,425.000000) scale(0.100000,-0.100000)"
fill="#000000" stroke="none">
<path d="M2063 4198 c-32 -17 -70 -39 -85 -49 -14 -11 -29 -19 -33 -19 -3 0
-31 -16 -61 -35 -30 -19 -59 -35 -65 -35 -18 0 -7 -18 115 -195 64 -93 116
-171 116 -175 0 -3 -6 -14 -13 -24 -13 -17 -26 -1 -141 168 -71 102 -130 186
-133 186 -6 0 -65 -34 -262 -149 -95 -57 -188 -111 -205 -120 -17 -10 -139
-81 -271 -158 -132 -78 -254 -149 -272 -159 -61 -36 -368 -215 -398 -232 -16
-9 -32 -20 -35 -24 -3 -3 -4 -49 -4 -102 l1 -95 56 -68 c30 -37 231 -282 445
-543 302 -368 388 -479 383 -493 -4 -10 -11 -19 -16 -20 -6 0 -201 232 -434
516 -233 285 -426 515 -429 512 -4 -3 -6 -1704 -3 -1801 1 -12 12 -26 28 -35
16 -7 52 -28 81 -46 29 -18 54 -33 57 -33 3 0 28 -15 57 -32 114 -70 176 -104
181 -97 2 2 107 223 232 492 125 268 232 487 236 487 5 0 13 -9 18 -19 9 -15
-31 -108 -214 -499 -124 -264 -225 -485 -225 -490 0 -8 95 -67 259 -160 25
-14 68 -38 95 -55 53 -31 142 -83 211 -122 l40 -23 180 331 c99 181 185 336
190 344 9 12 13 10 24 -9 11 -22 -1 -49 -169 -357 -100 -183 -180 -334 -179
-336 4 -3 167 -98 274 -160 22 -13 126 -73 230 -135 150 -87 195 -109 215
-105 14 4 81 39 150 79 69 41 143 84 165 96 22 12 43 24 47 26 4 3 -149 195
-339 427 -190 232 -350 427 -355 434 -10 13 -2 53 11 53 4 0 169 -198 367
-439 197 -242 364 -440 371 -440 6 -1 18 6 27 14 8 8 17 15 21 15 7 0 155 85
262 152 34 21 65 38 68 38 2 0 29 16 59 35 30 19 57 35 60 35 2 0 33 17 67 39
l64 38 199 366 c188 345 200 365 214 346 13 -19 13 -25 -3 -58 -17 -35 -238
-444 -297 -548 -31 -56 -25 -61 32 -23 14 10 45 29 70 42 25 14 68 38 95 54
28 15 52 30 55 33 3 3 21 14 40 25 53 28 94 52 139 80 22 15 44 26 48 26 5 0
19 9 32 19 l24 18 -103 152 c-96 141 -102 154 -91 178 13 28 -2 47 193 -238
l45 -67 32 15 c22 11 31 23 32 42 3 97 1 803 -3 806 -2 2 -63 -105 -136 -238
-72 -134 -138 -251 -145 -261 -12 -16 -14 -16 -25 6 -12 21 1 48 148 318 l162
295 0 565 c0 311 -1 572 -1 582 -1 19 -99 81 -391 246 -25 14 -79 46 -120 70
-174 104 -264 152 -270 145 -4 -5 -110 -197 -235 -428 -125 -231 -229 -421
-230 -423 -1 -1 -9 8 -17 21 -15 22 -6 40 213 442 125 231 225 423 221 427 -4
4 -124 75 -267 159 -143 83 -273 159 -290 169 -16 10 -64 37 -105 60 -41 24
-87 51 -103 62 l-27 20 -48 -104 c-27 -57 -77 -165 -113 -241 -63 -135 -64
-138 -81 -117 -20 25 -28 4 111 298 44 95 81 176 81 180 0 12 -102 72 -132 77
-10 2 -43 -10 -75 -27z m317 -981 c254 -372 272 -400 261 -424 l-12 -25 -17
23 c-10 13 -136 196 -280 406 -247 360 -261 383 -250 408 6 14 14 22 18 18 4
-5 130 -187 280 -406z m-332 382 c12 -19 -27 -106 -389 -880 -222 -472 -406
-859 -411 -859 -4 0 -12 9 -18 20 -9 16 57 164 392 879 222 474 405 861 408
861 3 0 11 -9 18 -21z m578 -953 c-18 -33 -201 -369 -406 -746 -205 -377 -379
-695 -387 -708 -12 -19 -17 -21 -29 -11 -9 7 -13 20 -11 30 3 10 191 360 418
778 406 746 414 760 432 740 17 -21 16 -24 -17 -83z m306 -236 c128 -187 333
-485 454 -662 199 -290 221 -325 211 -346 -10 -22 -11 -22 -27 -5 -14 15 -868
1258 -894 1300 -6 11 8 53 19 53 2 0 109 -153 237 -340z m-1418 -888 c141
-172 256 -319 256 -326 0 -8 -6 -18 -13 -24 -9 -8 -75 66 -269 304 -245 297
-257 315 -246 339 6 14 12 24 13 23 1 -2 117 -144 259 -316z"/>
</g>
</svg>
